<svg width="130" height="130" viewBox="0 0 130 130" fill="none" xmlns="http://www.w3.org/2000/svg">
<path d="M64.0735 62.6215C72.6766 62.6215 80.1252 59.5359 86.213 53.4482C92.2988 47.3614 95.3853 39.9138 95.3853 31.3098C95.3853 22.7087 92.2998 15.2601 86.212 9.17135C80.1242 3.08555 72.6756 0 64.0735 0C55.4695 0 48.0219 3.08555 41.9351 9.17235C35.8483 15.2591 32.7617 22.7077 32.7617 31.3098C32.7617 39.9138 35.8483 47.3623 41.9351 53.4491C48.0239 59.5349 55.4724 62.6215 64.0735 62.6215ZM47.3226 14.5589C51.9931 9.88844 57.472 7.61816 64.0735 7.61816C70.6741 7.61816 76.1539 9.88844 80.8254 14.5589C85.4959 19.2304 87.7671 24.7102 87.7671 31.3098C87.7671 37.9113 85.4959 43.3901 80.8254 48.0616C76.1539 52.733 70.6741 55.0033 64.0735 55.0033C57.4739 55.0033 51.9951 52.7321 47.3226 48.0616C42.6512 43.3911 40.3799 37.9113 40.3799 31.3098C40.3799 24.7102 42.6512 19.2304 47.3226 14.5589Z" fill="#F1E8E8"/>
<path d="M118.861 99.9636C118.685 97.4305 118.33 94.6673 117.808 91.7493C117.28 88.8096 116.601 86.0305 115.787 83.4905C114.946 80.8651 113.805 78.2725 112.391 75.788C110.926 73.2093 109.204 70.9638 107.272 69.116C105.252 67.183 102.778 65.6288 99.9181 64.4951C97.0676 63.3674 93.9086 62.7962 90.5295 62.7962C89.2024 62.7962 87.919 63.3407 85.4405 64.9544C83.915 65.9492 82.1307 67.0997 80.1392 68.3722C78.4362 69.4572 76.1292 70.4738 73.2797 71.3942C70.4997 72.2938 67.6769 72.7501 64.8899 72.7501C62.1049 72.7501 59.2822 72.2938 56.5001 71.3942C53.6536 70.4748 51.3456 69.4582 49.6456 68.3732C47.6729 67.1126 45.8876 65.962 44.3394 64.9534C41.8628 63.3397 40.5794 62.7952 39.2523 62.7952C35.8722 62.7952 32.7142 63.3674 29.8647 64.4961C27.0063 65.6278 24.5317 67.182 22.5094 69.117C20.5773 70.9658 18.8555 73.2103 17.3916 75.788C15.9802 78.2725 14.8376 80.8641 13.9966 83.4915C13.1843 86.0315 12.5049 88.8096 11.9772 91.7493C11.4536 94.6633 11.0995 97.4275 10.9239 99.9666C10.7513 102.449 10.6641 105.033 10.6641 107.643C10.6641 114.429 12.8213 119.923 17.0752 123.975C21.2766 127.973 26.8347 130 33.596 130H96.1918C102.951 130 108.509 127.973 112.712 123.975C116.966 119.926 119.124 114.43 119.124 107.642C119.123 105.023 119.034 102.439 118.861 99.9636ZM107.459 118.455C104.683 121.097 100.997 122.382 96.1908 122.382H33.596C28.7886 122.382 25.103 121.097 22.3279 118.456C19.6053 115.864 18.2822 112.327 18.2822 107.643C18.2822 105.207 18.3626 102.802 18.5233 100.493C18.68 98.2279 19.0003 95.7394 19.4754 93.0952C19.9445 90.4838 20.5416 88.033 21.2518 85.8143C21.9331 83.6868 22.8625 81.5802 24.015 79.551C25.1149 77.6169 26.3805 75.9576 27.7769 74.6206C29.0832 73.3699 30.7296 72.3464 32.6696 71.5787C34.4638 70.8686 36.4802 70.4798 38.6691 70.4213C38.9359 70.5631 39.411 70.8339 40.1807 71.3357C41.7468 72.3563 43.5519 73.5207 45.5474 74.7952C47.7969 76.2294 50.695 77.5247 54.1574 78.6425C57.6972 79.787 61.3075 80.3682 64.8909 80.3682C68.4744 80.3682 72.0856 79.787 75.6234 78.6434C79.0888 77.5237 81.9859 76.2294 84.2384 74.7932C86.2805 73.488 88.0351 72.3573 89.6011 71.3357C90.3708 70.8349 90.8459 70.5631 91.1127 70.4213C93.3026 70.4798 95.319 70.8686 97.1142 71.5787C99.0532 72.3464 100.7 73.3709 102.006 74.6206C103.402 75.9566 104.668 77.6159 105.768 79.552C106.921 81.5802 107.852 83.6878 108.532 85.8133C109.243 88.035 109.841 90.4848 110.309 93.0943C110.783 95.7434 111.105 98.2329 111.262 100.494V100.496C111.423 102.796 111.505 105.2 111.506 107.643C111.505 112.328 110.181 115.864 107.459 118.455Z" fill="#F1E8E8"/>
</svg>
